<?xml version="1.0" encoding="utf-8"?>
<svg xmlns="http://www.w3.org/2000/svg" xmlns:xlink="http://www.w3.org/1999/xlink" width="600" height="400" viewBox="0 0 2400 1600">
<defs>
  <clipPath id="clip100">
    <rect x="0" y="0" width="2400" height="1600"/>
  </clipPath>
</defs>
<path clip-path="url(#clip100)" d="
M0 1600 L2400 1600 L2400 0 L0 0  Z
  " fill="#ffffff" fill-rule="evenodd" fill-opacity="1"/>
<defs>
  <clipPath id="clip101">
    <rect x="480" y="0" width="1681" height="1600"/>
  </clipPath>
</defs>
<path clip-path="url(#clip100)" d="
M234.82 1486.45 L2352.76 1486.45 L2352.76 47.2441 L234.82 47.2441  Z
  " fill="#ffffff" fill-rule="evenodd" fill-opacity="1"/>
<defs>
  <clipPath id="clip102">
    <rect x="234" y="47" width="2119" height="1440"/>
  </clipPath>
</defs>
<polyline clip-path="url(#clip102)" style="stroke:#000000; stroke-width:2; stroke-opacity:0.1; fill:none" points="
  545.267,1486.45 545.267,47.2441 
  "/>
<polyline clip-path="url(#clip102)" style="stroke:#000000; stroke-width:2; stroke-opacity:0.1; fill:none" points="
  1044.28,1486.45 1044.28,47.2441 
  "/>
<polyline clip-path="url(#clip102)" style="stroke:#000000; stroke-width:2; stroke-opacity:0.1; fill:none" points="
  1543.29,1486.45 1543.29,47.2441 
  "/>
<polyline clip-path="url(#clip102)" style="stroke:#000000; stroke-width:2; stroke-opacity:0.1; fill:none" points="
  2042.31,1486.45 2042.31,47.2441 
  "/>
<polyline clip-path="url(#clip100)" style="stroke:#000000; stroke-width:4; stroke-opacity:1; fill:none" points="
  234.82,1486.45 2352.76,1486.45 
  "/>
<polyline clip-path="url(#clip100)" style="stroke:#000000; stroke-width:4; stroke-opacity:1; fill:none" points="
  545.267,1486.45 545.267,1469.18 
  "/>
<polyline clip-path="url(#clip100)" style="stroke:#000000; stroke-width:4; stroke-opacity:1; fill:none" points="
  1044.28,1486.45 1044.28,1469.18 
  "/>
<polyline clip-path="url(#clip100)" style="stroke:#000000; stroke-width:4; stroke-opacity:1; fill:none" points="
  1543.29,1486.45 1543.29,1469.18 
  "/>
<polyline clip-path="url(#clip100)" style="stroke:#000000; stroke-width:4; stroke-opacity:1; fill:none" points="
  2042.31,1486.45 2042.31,1469.18 
  "/>
<path clip-path="url(#clip100)" d="M 0 0 M425.661 1512.56 L431.957 1512.56 L447.281 1541.47 L447.281 1512.56 L451.818 1512.56 L451.818 1547.12 L445.522 1547.12 L430.198 1518.21 L430.198 1547.12 L425.661 1547.12 L425.661 1512.56 Z" fill="#000000" fill-rule="evenodd" fill-opacity="1" /><path clip-path="url(#clip100)" d="M 0 0 M466.332 1524.18 Q462.906 1524.18 460.915 1526.87 Q458.924 1529.53 458.924 1534.18 Q458.924 1538.83 460.892 1541.52 Q462.883 1544.18 466.332 1544.18 Q469.735 1544.18 471.725 1541.49 Q473.716 1538.81 473.716 1534.18 Q473.716 1529.57 471.725 1526.89 Q469.735 1524.18 466.332 1524.18 M466.332 1520.57 Q471.887 1520.57 475.059 1524.18 Q478.23 1527.79 478.23 1534.18 Q478.23 1540.55 475.059 1544.18 Q471.887 1547.79 466.332 1547.79 Q460.753 1547.79 457.582 1544.18 Q454.434 1540.55 454.434 1534.18 Q454.434 1527.79 457.582 1524.18 Q460.753 1520.57 466.332 1520.57 Z" fill="#000000" fill-rule="evenodd" fill-opacity="1" /><path clip-path="url(#clip100)" d="M 0 0 M497.721 1525.18 Q497.003 1524.76 496.146 1524.57 Q495.313 1524.37 494.295 1524.37 Q490.684 1524.37 488.739 1526.73 Q486.818 1529.06 486.818 1533.46 L486.818 1547.12 L482.535 1547.12 L482.535 1521.19 L486.818 1521.19 L486.818 1525.22 Q488.16 1522.86 490.313 1521.73 Q492.466 1520.57 495.545 1520.57 Q495.984 1520.57 496.517 1520.64 Q497.049 1520.68 497.697 1520.8 L497.721 1525.18 Z" fill="#000000" fill-rule="evenodd" fill-opacity="1" /><path clip-path="url(#clip100)" d="M 0 0 M521.54 1526.17 Q523.137 1523.3 525.359 1521.93 Q527.582 1520.57 530.591 1520.57 Q534.642 1520.57 536.841 1523.42 Q539.04 1526.24 539.04 1531.47 L539.04 1547.12 L534.757 1547.12 L534.757 1531.61 Q534.757 1527.88 533.438 1526.08 Q532.119 1524.27 529.41 1524.27 Q526.1 1524.27 524.179 1526.47 Q522.257 1528.67 522.257 1532.47 L522.257 1547.12 L517.975 1547.12 L517.975 1531.61 Q517.975 1527.86 516.656 1526.08 Q515.336 1524.27 512.582 1524.27 Q509.318 1524.27 507.396 1526.49 Q505.475 1528.69 505.475 1532.47 L505.475 1547.12 L501.193 1547.12 L501.193 1521.19 L505.475 1521.19 L505.475 1525.22 Q506.933 1522.84 508.971 1521.7 Q511.008 1520.57 513.808 1520.57 Q516.632 1520.57 518.6 1522 Q520.591 1523.44 521.54 1526.17 Z" fill="#000000" fill-rule="evenodd" fill-opacity="1" /><path clip-path="url(#clip100)" d="M 0 0 M555.29 1534.09 Q550.128 1534.09 548.137 1535.27 Q546.146 1536.45 546.146 1539.3 Q546.146 1541.56 547.628 1542.91 Q549.132 1544.23 551.702 1544.23 Q555.243 1544.23 557.373 1541.73 Q559.526 1539.2 559.526 1535.04 L559.526 1534.09 L555.29 1534.09 M563.785 1532.33 L563.785 1547.12 L559.526 1547.12 L559.526 1543.18 Q558.067 1545.55 555.892 1546.68 Q553.716 1547.79 550.567 1547.79 Q546.586 1547.79 544.225 1545.57 Q541.887 1543.32 541.887 1539.57 Q541.887 1535.2 544.804 1532.98 Q547.743 1530.75 553.554 1530.75 L559.526 1530.75 L559.526 1530.34 Q559.526 1527.4 557.581 1525.8 Q555.66 1524.18 552.165 1524.18 Q549.943 1524.18 547.836 1524.71 Q545.73 1525.24 543.785 1526.31 L543.785 1522.37 Q546.123 1521.47 548.322 1521.03 Q550.521 1520.57 552.605 1520.57 Q558.229 1520.57 561.007 1523.49 Q563.785 1526.4 563.785 1532.33 Z" fill="#000000" fill-rule="evenodd" fill-opacity="1" /><path clip-path="url(#clip100)" d="M 0 0 M568.253 1511.1 L572.512 1511.1 L572.512 1547.12 L568.253 1547.12 L568.253 1511.1 Z" fill="#000000" fill-rule="evenodd" fill-opacity="1" /><path clip-path="url(#clip100)" d="M 0 0 M587.211 1511.15 Q584.109 1516.47 582.604 1521.68 Q581.1 1526.89 581.1 1532.24 Q581.1 1537.58 582.604 1542.84 Q584.132 1548.07 587.211 1553.37 L583.507 1553.37 Q580.035 1547.93 578.299 1542.68 Q576.586 1537.42 576.586 1532.24 Q576.586 1527.07 578.299 1521.84 Q580.012 1516.61 583.507 1511.15 L587.211 1511.15 Z" fill="#000000" fill-rule="evenodd" fill-opacity="1" /><path clip-path="url(#clip100)" d="M 0 0 M602.28 1515.64 Q598.669 1515.64 596.84 1519.2 Q595.035 1522.75 595.035 1529.87 Q595.035 1536.98 596.84 1540.55 Q598.669 1544.09 602.28 1544.09 Q605.914 1544.09 607.72 1540.55 Q609.549 1536.98 609.549 1529.87 Q609.549 1522.75 607.72 1519.2 Q605.914 1515.64 602.28 1515.64 M602.28 1511.93 Q608.09 1511.93 611.146 1516.54 Q614.225 1521.12 614.225 1529.87 Q614.225 1538.6 611.146 1543.21 Q608.09 1547.79 602.28 1547.79 Q596.47 1547.79 593.391 1543.21 Q590.336 1538.6 590.336 1529.87 Q590.336 1521.12 593.391 1516.54 Q596.47 1511.93 602.28 1511.93 Z" fill="#000000" fill-rule="evenodd" fill-opacity="1" /><path clip-path="url(#clip100)" d="M 0 0 M619.78 1541.24 L624.664 1541.24 L624.664 1545.22 L620.868 1552.63 L617.882 1552.63 L619.78 1545.22 L619.78 1541.24 Z" fill="#000000" fill-rule="evenodd" fill-opacity="1" /><path clip-path="url(#clip100)" d="M 0 0 M630.544 1543.18 L638.183 1543.18 L638.183 1516.82 L629.873 1518.49 L629.873 1514.23 L638.136 1512.56 L642.812 1512.56 L642.812 1543.18 L650.451 1543.18 L650.451 1547.12 L630.544 1547.12 L630.544 1543.18 Z" fill="#000000" fill-rule="evenodd" fill-opacity="1" /><path clip-path="url(#clip100)" d="M 0 0 M654.247 1511.15 L657.951 1511.15 Q661.423 1516.61 663.136 1521.84 Q664.872 1527.07 664.872 1532.24 Q664.872 1537.42 663.136 1542.68 Q661.423 1547.93 657.951 1553.37 L654.247 1553.37 Q657.326 1548.07 658.831 1542.84 Q660.359 1537.58 660.359 1532.24 Q660.359 1526.89 658.831 1521.68 Q657.326 1516.47 654.247 1511.15 Z" fill="#000000" fill-rule="evenodd" fill-opacity="1" /><path clip-path="url(#clip100)" d="M 0 0 M923.24 1512.56 L929.536 1512.56 L944.86 1541.47 L944.86 1512.56 L949.397 1512.56 L949.397 1547.12 L943.101 1547.12 L927.777 1518.21 L927.777 1547.12 L923.24 1547.12 L923.24 1512.56 Z" fill="#000000" fill-rule="evenodd" fill-opacity="1" /><path clip-path="url(#clip100)" d="M 0 0 M963.911 1524.18 Q960.485 1524.18 958.494 1526.87 Q956.503 1529.53 956.503 1534.18 Q956.503 1538.83 958.471 1541.52 Q960.462 1544.18 963.911 1544.18 Q967.314 1544.18 969.304 1541.49 Q971.295 1538.81 971.295 1534.18 Q971.295 1529.57 969.304 1526.89 Q967.314 1524.18 963.911 1524.18 M963.911 1520.57 Q969.466 1520.57 972.638 1524.18 Q975.809 1527.79 975.809 1534.18 Q975.809 1540.55 972.638 1544.18 Q969.466 1547.79 963.911 1547.79 Q958.332 1547.79 955.161 1544.18 Q952.013 1540.55 952.013 1534.18 Q952.013 1527.79 955.161 1524.18 Q958.332 1520.57 963.911 1520.57 Z" fill="#000000" fill-rule="evenodd" fill-opacity="1" /><path clip-path="url(#clip100)" d="M 0 0 M995.3 1525.18 Q994.582 1524.76 993.726 1524.57 Q992.892 1524.37 991.874 1524.37 Q988.263 1524.37 986.318 1526.73 Q984.397 1529.06 984.397 1533.46 L984.397 1547.12 L980.114 1547.12 L980.114 1521.19 L984.397 1521.19 L984.397 1525.22 Q985.739 1522.86 987.892 1521.73 Q990.045 1520.57 993.124 1520.57 Q993.563 1520.57 994.096 1520.64 Q994.628 1520.68 995.276 1520.8 L995.3 1525.18 Z" fill="#000000" fill-rule="evenodd" fill-opacity="1" /><path clip-path="url(#clip100)" d="M 0 0 M1019.12 1526.17 Q1020.72 1523.3 1022.94 1521.93 Q1025.16 1520.57 1028.17 1520.57 Q1032.22 1520.57 1034.42 1523.42 Q1036.62 1526.24 1036.62 1531.47 L1036.62 1547.12 L1032.34 1547.12 L1032.34 1531.61 Q1032.34 1527.88 1031.02 1526.08 Q1029.7 1524.27 1026.99 1524.27 Q1023.68 1524.27 1021.76 1526.47 Q1019.84 1528.67 1019.84 1532.47 L1019.84 1547.12 L1015.55 1547.12 L1015.55 1531.61 Q1015.55 1527.86 1014.23 1526.08 Q1012.92 1524.27 1010.16 1524.27 Q1006.9 1524.27 1004.98 1526.49 Q1003.05 1528.69 1003.05 1532.47 L1003.05 1547.12 L998.772 1547.12 L998.772 1521.19 L1003.05 1521.19 L1003.05 1525.22 Q1004.51 1522.84 1006.55 1521.7 Q1008.59 1520.57 1011.39 1520.57 Q1014.21 1520.57 1016.18 1522 Q1018.17 1523.44 1019.12 1526.17 Z" fill="#000000" fill-rule="evenodd" fill-opacity="1" /><path clip-path="url(#clip100)" d="M 0 0 M1052.87 1534.09 Q1047.71 1534.09 1045.72 1535.27 Q1043.73 1536.45 1043.73 1539.3 Q1043.73 1541.56 1045.21 1542.91 Q1046.71 1544.23 1049.28 1544.23 Q1052.82 1544.23 1054.95 1541.73 Q1057.1 1539.2 1057.1 1535.04 L1057.1 1534.09 L1052.87 1534.09 M1061.36 1532.33 L1061.36 1547.12 L1057.1 1547.12 L1057.1 1543.18 Q1055.65 1545.55 1053.47 1546.68 Q1051.29 1547.79 1048.15 1547.79 Q1044.17 1547.79 1041.8 1545.57 Q1039.47 1543.32 1039.47 1539.57 Q1039.47 1535.2 1042.38 1532.98 Q1045.32 1530.75 1051.13 1530.75 L1057.1 1530.75 L1057.1 1530.34 Q1057.1 1527.4 1055.16 1525.8 Q1053.24 1524.18 1049.74 1524.18 Q1047.52 1524.18 1045.42 1524.71 Q1043.31 1525.24 1041.36 1526.31 L1041.36 1522.37 Q1043.7 1521.47 1045.9 1521.03 Q1048.1 1520.57 1050.18 1520.57 Q1055.81 1520.57 1058.59 1523.49 Q1061.36 1526.4 1061.36 1532.33 Z" fill="#000000" fill-rule="evenodd" fill-opacity="1" /><path clip-path="url(#clip100)" d="M 0 0 M1065.83 1511.1 L1070.09 1511.1 L1070.09 1547.12 L1065.83 1547.12 L1065.83 1511.1 Z" fill="#000000" fill-rule="evenodd" fill-opacity="1" /><path clip-path="url(#clip100)" d="M 0 0 M1084.79 1511.15 Q1081.69 1516.47 1080.18 1521.68 Q1078.68 1526.89 1078.68 1532.24 Q1078.68 1537.58 1080.18 1542.84 Q1081.71 1548.07 1084.79 1553.37 L1081.09 1553.37 Q1077.61 1547.93 1075.88 1542.68 Q1074.16 1537.42 1074.16 1532.24 Q1074.16 1527.07 1075.88 1521.84 Q1077.59 1516.61 1081.09 1511.15 L1084.79 1511.15 Z" fill="#000000" fill-rule="evenodd" fill-opacity="1" /><path clip-path="url(#clip100)" d="M 0 0 M1099.86 1515.64 Q1096.25 1515.64 1094.42 1519.2 Q1092.61 1522.75 1092.61 1529.87 Q1092.61 1536.98 1094.42 1540.55 Q1096.25 1544.09 1099.86 1544.09 Q1103.49 1544.09 1105.3 1540.55 Q1107.13 1536.98 1107.13 1529.87 Q1107.13 1522.75 1105.3 1519.2 Q1103.49 1515.64 1099.86 1515.64 M1099.86 1511.93 Q1105.67 1511.93 1108.72 1516.54 Q1111.8 1521.12 1111.8 1529.87 Q1111.8 1538.6 1108.72 1543.21 Q1105.67 1547.79 1099.86 1547.79 Q1094.05 1547.79 1090.97 1543.21 Q1087.91 1538.6 1087.91 1529.87 Q1087.91 1521.12 1090.97 1516.54 Q1094.05 1511.93 1099.86 1511.93 Z" fill="#000000" fill-rule="evenodd" fill-opacity="1" /><path clip-path="url(#clip100)" d="M 0 0 M1117.36 1541.24 L1122.24 1541.24 L1122.24 1545.22 L1118.45 1552.63 L1115.46 1552.63 L1117.36 1545.22 L1117.36 1541.24 Z" fill="#000000" fill-rule="evenodd" fill-opacity="1" /><path clip-path="url(#clip100)" d="M 0 0 M1136.76 1524.57 Q1133.24 1524.57 1131.34 1527.12 Q1129.35 1529.78 1129.35 1534.18 Q1129.35 1538.83 1131.32 1541.52 Q1133.31 1544.18 1136.76 1544.18 Q1140.16 1544.18 1142.15 1541.49 Q1144.14 1538.81 1144.14 1534.18 Q1144.14 1529.94 1142.15 1527.12 Q1140.32 1524.57 1136.76 1524.57 M1136.76 1521.19 L1150.9 1521.19 L1150.9 1525.45 L1146.13 1525.45 Q1148.66 1529.06 1148.66 1534.18 Q1148.66 1540.55 1145.48 1544.16 Q1142.31 1547.79 1136.76 1547.79 Q1131.18 1547.79 1128.03 1544.16 Q1124.86 1540.55 1124.86 1534.18 Q1124.86 1527.77 1128.03 1524.18 Q1130.65 1521.19 1136.76 1521.19 Z" fill="#000000" fill-rule="evenodd" fill-opacity="1" /><path clip-path="url(#clip100)" d="M 0 0 M1154.7 1511.15 L1158.4 1511.15 Q1161.87 1516.61 1163.59 1521.84 Q1165.32 1527.07 1165.32 1532.24 Q1165.32 1537.42 1163.59 1542.68 Q1161.87 1547.93 1158.4 1553.37 L1154.7 1553.37 Q1157.78 1548.07 1159.28 1542.84 Q1160.81 1537.58 1160.81 1532.24 Q1160.81 1526.89 1159.28 1521.68 Q1157.78 1516.47 1154.7 1511.15 Z" fill="#000000" fill-rule="evenodd" fill-opacity="1" /><path clip-path="url(#clip100)" d="M 0 0 M1422.69 1512.56 L1428.99 1512.56 L1444.31 1541.47 L1444.31 1512.56 L1448.85 1512.56 L1448.85 1547.12 L1442.55 1547.12 L1427.23 1518.21 L1427.23 1547.12 L1422.69 1547.12 L1422.69 1512.56 Z" fill="#000000" fill-rule="evenodd" fill-opacity="1" /><path clip-path="url(#clip100)" d="M 0 0 M1463.36 1524.18 Q1459.94 1524.18 1457.95 1526.87 Q1455.96 1529.53 1455.96 1534.18 Q1455.96 1538.83 1457.93 1541.52 Q1459.92 1544.18 1463.36 1544.18 Q1466.77 1544.18 1468.76 1541.49 Q1470.75 1538.81 1470.75 1534.18 Q1470.75 1529.57 1468.76 1526.89 Q1466.77 1524.18 1463.36 1524.18 M1463.36 1520.57 Q1468.92 1520.57 1472.09 1524.18 Q1475.26 1527.79 1475.26 1534.18 Q1475.26 1540.55 1472.09 1544.18 Q1468.92 1547.79 1463.36 1547.79 Q1457.79 1547.79 1454.61 1544.18 Q1451.47 1540.55 1451.47 1534.18 Q1451.47 1527.79 1454.61 1524.18 Q1457.79 1520.57 1463.36 1520.57 Z" fill="#000000" fill-rule="evenodd" fill-opacity="1" /><path clip-path="url(#clip100)" d="M 0 0 M1494.75 1525.18 Q1494.04 1524.76 1493.18 1524.57 Q1492.35 1524.37 1491.33 1524.37 Q1487.72 1524.37 1485.77 1526.73 Q1483.85 1529.06 1483.85 1533.46 L1483.85 1547.12 L1479.57 1547.12 L1479.57 1521.19 L1483.85 1521.19 L1483.85 1525.22 Q1485.19 1522.86 1487.35 1521.73 Q1489.5 1520.57 1492.58 1520.57 Q1493.02 1520.57 1493.55 1520.64 Q1494.08 1520.68 1494.73 1520.8 L1494.75 1525.18 Z" fill="#000000" fill-rule="evenodd" fill-opacity="1" /><path clip-path="url(#clip100)" d="M 0 0 M1518.57 1526.17 Q1520.17 1523.3 1522.39 1521.93 Q1524.61 1520.57 1527.62 1520.57 Q1531.67 1520.57 1533.87 1523.42 Q1536.07 1526.24 1536.07 1531.47 L1536.07 1547.12 L1531.79 1547.12 L1531.79 1531.61 Q1531.79 1527.88 1530.47 1526.08 Q1529.15 1524.27 1526.44 1524.27 Q1523.13 1524.27 1521.21 1526.47 Q1519.29 1528.67 1519.29 1532.47 L1519.29 1547.12 L1515.01 1547.12 L1515.01 1531.61 Q1515.01 1527.86 1513.69 1526.08 Q1512.37 1524.27 1509.61 1524.27 Q1506.35 1524.27 1504.43 1526.49 Q1502.51 1528.69 1502.51 1532.47 L1502.51 1547.12 L1498.23 1547.12 L1498.23 1521.19 L1502.51 1521.19 L1502.51 1525.22 Q1503.97 1522.84 1506 1521.7 Q1508.04 1520.57 1510.84 1520.57 Q1513.67 1520.57 1515.63 1522 Q1517.62 1523.44 1518.57 1526.17 Z" fill="#000000" fill-rule="evenodd" fill-opacity="1" /><path clip-path="url(#clip100)" d="M 0 0 M1552.32 1534.09 Q1547.16 1534.09 1545.17 1535.27 Q1543.18 1536.45 1543.18 1539.3 Q1543.18 1541.56 1544.66 1542.91 Q1546.17 1544.23 1548.73 1544.23 Q1552.28 1544.23 1554.41 1541.73 Q1556.56 1539.2 1556.56 1535.04 L1556.56 1534.09 L1552.32 1534.09 M1560.82 1532.33 L1560.82 1547.12 L1556.56 1547.12 L1556.56 1543.18 Q1555.1 1545.55 1552.92 1546.68 Q1550.75 1547.79 1547.6 1547.79 Q1543.62 1547.79 1541.26 1545.57 Q1538.92 1543.32 1538.92 1539.57 Q1538.92 1535.2 1541.84 1532.98 Q1544.78 1530.75 1550.59 1530.75 L1556.56 1530.75 L1556.56 1530.34 Q1556.56 1527.4 1554.61 1525.8 Q1552.69 1524.18 1549.2 1524.18 Q1546.98 1524.18 1544.87 1524.71 Q1542.76 1525.24 1540.82 1526.31 L1540.82 1522.37 Q1543.16 1521.47 1545.36 1521.03 Q1547.55 1520.57 1549.64 1520.57 Q1555.26 1520.57 1558.04 1523.49 Q1560.82 1526.4 1560.82 1532.33 Z" fill="#000000" fill-rule="evenodd" fill-opacity="1" /><path clip-path="url(#clip100)" d="M 0 0 M1565.29 1511.1 L1569.54 1511.1 L1569.54 1547.12 L1565.29 1547.12 L1565.29 1511.1 Z" fill="#000000" fill-rule="evenodd" fill-opacity="1" /><path clip-path="url(#clip100)" d="M 0 0 M1584.24 1511.15 Q1581.14 1516.47 1579.64 1521.68 Q1578.13 1526.89 1578.13 1532.24 Q1578.13 1537.58 1579.64 1542.84 Q1581.17 1548.07 1584.24 1553.37 L1580.54 1553.37 Q1577.07 1547.93 1575.33 1542.68 Q1573.62 1537.42 1573.62 1532.24 Q1573.62 1527.07 1575.33 1521.84 Q1577.04 1516.61 1580.54 1511.15 L1584.24 1511.15 Z" fill="#000000" fill-rule="evenodd" fill-opacity="1" /><path clip-path="url(#clip100)" d="M 0 0 M1588.27 1556.98 L1588.27 1521.19 L1592.53 1521.19 L1592.53 1537.31 Q1592.53 1540.66 1594.13 1542.37 Q1595.73 1544.09 1598.85 1544.09 Q1602.28 1544.09 1603.99 1542.14 Q1605.73 1540.2 1605.73 1536.31 L1605.73 1521.19 L1609.98 1521.19 L1609.98 1541.15 Q1609.98 1542.54 1610.38 1543.21 Q1610.79 1543.86 1611.65 1543.86 Q1611.86 1543.86 1612.23 1543.74 Q1612.6 1543.6 1613.25 1543.32 L1613.25 1546.75 Q1612.3 1547.28 1611.44 1547.54 Q1610.61 1547.79 1609.8 1547.79 Q1608.2 1547.79 1607.25 1546.89 Q1606.3 1545.99 1605.96 1544.13 Q1604.8 1545.96 1603.11 1546.89 Q1601.44 1547.79 1599.17 1547.79 Q1596.81 1547.79 1595.15 1546.89 Q1593.5 1545.99 1592.53 1544.18 L1592.53 1556.98 L1588.27 1556.98 Z" fill="#000000" fill-rule="evenodd" fill-opacity="1" /><path clip-path="url(#clip100)" d="M 0 0 M1618.8 1541.24 L1623.69 1541.24 L1623.69 1545.22 L1619.89 1552.63 L1616.91 1552.63 L1618.8 1545.22 L1618.8 1541.24 Z" fill="#000000" fill-rule="evenodd" fill-opacity="1" /><path clip-path="url(#clip100)" d="M 0 0 M1629.57 1543.18 L1637.21 1543.18 L1637.21 1516.82 L1628.9 1518.49 L1628.9 1514.23 L1637.16 1512.56 L1641.84 1512.56 L1641.84 1543.18 L1649.47 1543.18 L1649.47 1547.12 L1629.57 1547.12 L1629.57 1543.18 Z" fill="#000000" fill-rule="evenodd" fill-opacity="1" /><path clip-path="url(#clip100)" d="M 0 0 M1653.27 1511.15 L1656.97 1511.15 Q1660.45 1516.61 1662.16 1521.84 Q1663.9 1527.07 1663.9 1532.24 Q1663.9 1537.42 1662.16 1542.68 Q1660.45 1547.93 1656.97 1553.37 L1653.27 1553.37 Q1656.35 1548.07 1657.85 1542.84 Q1659.38 1537.58 1659.38 1532.24 Q1659.38 1526.89 1657.85 1521.68 Q1656.35 1516.47 1653.27 1511.15 Z" fill="#000000" fill-rule="evenodd" fill-opacity="1" /><path clip-path="url(#clip100)" d="M 0 0 M1920.27 1512.56 L1926.57 1512.56 L1941.89 1541.47 L1941.89 1512.56 L1946.43 1512.56 L1946.43 1547.12 L1940.13 1547.12 L1924.81 1518.21 L1924.81 1547.12 L1920.27 1547.12 L1920.27 1512.56 Z" fill="#000000" fill-rule="evenodd" fill-opacity="1" /><path clip-path="url(#clip100)" d="M 0 0 M1960.94 1524.18 Q1957.52 1524.18 1955.53 1526.87 Q1953.54 1529.53 1953.54 1534.18 Q1953.54 1538.83 1955.5 1541.52 Q1957.49 1544.18 1960.94 1544.18 Q1964.35 1544.18 1966.34 1541.49 Q1968.33 1538.81 1968.33 1534.18 Q1968.33 1529.57 1966.34 1526.89 Q1964.35 1524.18 1960.94 1524.18 M1960.94 1520.57 Q1966.5 1520.57 1969.67 1524.18 Q1972.84 1527.79 1972.84 1534.18 Q1972.84 1540.55 1969.67 1544.18 Q1966.5 1547.79 1960.94 1547.79 Q1955.37 1547.79 1952.19 1544.18 Q1949.05 1540.55 1949.05 1534.18 Q1949.05 1527.79 1952.19 1524.18 Q1955.37 1520.57 1960.94 1520.57 Z" fill="#000000" fill-rule="evenodd" fill-opacity="1" /><path clip-path="url(#clip100)" d="M 0 0 M1992.33 1525.18 Q1991.62 1524.76 1990.76 1524.57 Q1989.93 1524.37 1988.91 1524.37 Q1985.3 1524.37 1983.35 1526.73 Q1981.43 1529.06 1981.43 1533.46 L1981.43 1547.12 L1977.15 1547.12 L1977.15 1521.19 L1981.43 1521.19 L1981.43 1525.22 Q1982.77 1522.86 1984.93 1521.73 Q1987.08 1520.57 1990.16 1520.57 Q1990.6 1520.57 1991.13 1520.64 Q1991.66 1520.68 1992.31 1520.8 L1992.33 1525.18 Z" fill="#000000" fill-rule="evenodd" fill-opacity="1" /><path clip-path="url(#clip100)" d="M 0 0 M2016.15 1526.17 Q2017.75 1523.3 2019.97 1521.93 Q2022.19 1520.57 2025.2 1520.57 Q2029.25 1520.57 2031.45 1523.42 Q2033.65 1526.24 2033.65 1531.47 L2033.65 1547.12 L2029.37 1547.12 L2029.37 1531.61 Q2029.37 1527.88 2028.05 1526.08 Q2026.73 1524.27 2024.02 1524.27 Q2020.71 1524.27 2018.79 1526.47 Q2016.87 1528.67 2016.87 1532.47 L2016.87 1547.12 L2012.59 1547.12 L2012.59 1531.61 Q2012.59 1527.86 2011.27 1526.08 Q2009.95 1524.27 2007.19 1524.27 Q2003.93 1524.27 2002.01 1526.49 Q2000.09 1528.69 2000.09 1532.47 L2000.09 1547.12 L1995.8 1547.12 L1995.8 1521.19 L2000.09 1521.19 L2000.09 1525.22 Q2001.55 1522.84 2003.58 1521.7 Q2005.62 1520.57 2008.42 1520.57 Q2011.24 1520.57 2013.21 1522 Q2015.2 1523.44 2016.15 1526.17 Z" fill="#000000" fill-rule="evenodd" fill-opacity="1" /><path clip-path="url(#clip100)" d="M 0 0 M2049.9 1534.09 Q2044.74 1534.09 2042.75 1535.27 Q2040.76 1536.45 2040.76 1539.3 Q2040.76 1541.56 2042.24 1542.91 Q2043.74 1544.23 2046.31 1544.23 Q2049.86 1544.23 2051.99 1541.73 Q2054.14 1539.2 2054.14 1535.04 L2054.14 1534.09 L2049.9 1534.09 M2058.4 1532.33 L2058.4 1547.12 L2054.14 1547.12 L2054.14 1543.18 Q2052.68 1545.55 2050.5 1546.68 Q2048.33 1547.79 2045.18 1547.79 Q2041.2 1547.79 2038.84 1545.57 Q2036.5 1543.32 2036.5 1539.57 Q2036.5 1535.2 2039.42 1532.98 Q2042.36 1530.75 2048.17 1530.75 L2054.14 1530.75 L2054.14 1530.34 Q2054.14 1527.4 2052.19 1525.8 Q2050.27 1524.18 2046.78 1524.18 Q2044.55 1524.18 2042.45 1524.71 Q2040.34 1525.24 2038.4 1526.31 L2038.4 1522.37 Q2040.74 1521.47 2042.93 1521.03 Q2045.13 1520.57 2047.22 1520.57 Q2052.84 1520.57 2055.62 1523.49 Q2058.4 1526.4 2058.4 1532.33 Z" fill="#000000" fill-rule="evenodd" fill-opacity="1" /><path clip-path="url(#clip100)" d="M 0 0 M2062.86 1511.1 L2067.12 1511.1 L2067.12 1547.12 L2062.86 1547.12 L2062.86 1511.1 Z" fill="#000000" fill-rule="evenodd" fill-opacity="1" /><path clip-path="url(#clip100)" d="M 0 0 M2081.82 1511.15 Q2078.72 1516.47 2077.22 1521.68 Q2075.71 1526.89 2075.71 1532.24 Q2075.71 1537.58 2077.22 1542.84 Q2078.74 1548.07 2081.82 1553.37 L2078.12 1553.37 Q2074.65 1547.93 2072.91 1542.68 Q2071.2 1537.42 2071.2 1532.24 Q2071.2 1527.07 2072.91 1521.84 Q2074.62 1516.61 2078.12 1511.15 L2081.82 1511.15 Z" fill="#000000" fill-rule="evenodd" fill-opacity="1" /><path clip-path="url(#clip100)" d="M 0 0 M2085.85 1556.98 L2085.85 1521.19 L2090.11 1521.19 L2090.11 1537.31 Q2090.11 1540.66 2091.71 1542.37 Q2093.3 1544.09 2096.43 1544.09 Q2099.86 1544.09 2101.57 1542.14 Q2103.3 1540.2 2103.3 1536.31 L2103.3 1521.19 L2107.56 1521.19 L2107.56 1541.15 Q2107.56 1542.54 2107.96 1543.21 Q2108.37 1543.86 2109.23 1543.86 Q2109.44 1543.86 2109.81 1543.74 Q2110.18 1543.6 2110.83 1543.32 L2110.83 1546.75 Q2109.88 1547.28 2109.02 1547.54 Q2108.19 1547.79 2107.38 1547.79 Q2105.78 1547.79 2104.83 1546.89 Q2103.88 1545.99 2103.54 1544.13 Q2102.38 1545.96 2100.69 1546.89 Q2099.02 1547.79 2096.75 1547.79 Q2094.39 1547.79 2092.73 1546.89 Q2091.08 1545.99 2090.11 1544.18 L2090.11 1556.98 L2085.85 1556.98 Z" fill="#000000" fill-rule="evenodd" fill-opacity="1" /><path clip-path="url(#clip100)" d="M 0 0 M2116.38 1541.24 L2121.27 1541.24 L2121.27 1545.22 L2117.47 1552.63 L2114.48 1552.63 L2116.38 1545.22 L2116.38 1541.24 Z" fill="#000000" fill-rule="evenodd" fill-opacity="1" /><path clip-path="url(#clip100)" d="M 0 0 M2135.78 1524.57 Q2132.26 1524.57 2130.36 1527.12 Q2128.37 1529.78 2128.37 1534.18 Q2128.37 1538.83 2130.34 1541.52 Q2132.33 1544.18 2135.78 1544.18 Q2139.18 1544.18 2141.17 1541.49 Q2143.17 1538.81 2143.17 1534.18 Q2143.17 1529.94 2141.17 1527.12 Q2139.35 1524.57 2135.78 1524.57 M2135.78 1521.19 L2149.92 1521.19 L2149.92 1525.45 L2145.16 1525.45 Q2147.68 1529.06 2147.68 1534.18 Q2147.68 1540.55 2144.51 1544.16 Q2141.34 1547.79 2135.78 1547.79 Q2130.2 1547.79 2127.05 1544.16 Q2123.88 1540.55 2123.88 1534.18 Q2123.88 1527.77 2127.05 1524.18 Q2129.67 1521.19 2135.78 1521.19 Z" fill="#000000" fill-rule="evenodd" fill-opacity="1" /><path clip-path="url(#clip100)" d="M 0 0 M2153.72 1511.15 L2157.42 1511.15 Q2160.9 1516.61 2162.61 1521.84 Q2164.35 1527.07 2164.35 1532.24 Q2164.35 1537.42 2162.61 1542.68 Q2160.9 1547.93 2157.42 1553.37 L2153.72 1553.37 Q2156.8 1548.07 2158.3 1542.84 Q2159.83 1537.58 2159.83 1532.24 Q2159.83 1526.89 2158.3 1521.68 Q2156.8 1516.47 2153.72 1511.15 Z" fill="#000000" fill-rule="evenodd" fill-opacity="1" /><polyline clip-path="url(#clip102)" style="stroke:#000000; stroke-width:2; stroke-opacity:0.1; fill:none" points="
  234.82,1445.72 2352.76,1445.72 
  "/>
<polyline clip-path="url(#clip102)" style="stroke:#000000; stroke-width:2; stroke-opacity:0.1; fill:none" points="
  234.82,1098.22 2352.76,1098.22 
  "/>
<polyline clip-path="url(#clip102)" style="stroke:#000000; stroke-width:2; stroke-opacity:0.1; fill:none" points="
  234.82,750.722 2352.76,750.722 
  "/>
<polyline clip-path="url(#clip102)" style="stroke:#000000; stroke-width:2; stroke-opacity:0.1; fill:none" points="
  234.82,403.225 2352.76,403.225 
  "/>
<polyline clip-path="url(#clip102)" style="stroke:#000000; stroke-width:2; stroke-opacity:0.1; fill:none" points="
  234.82,55.7286 2352.76,55.7286 
  "/>
<polyline clip-path="url(#clip100)" style="stroke:#000000; stroke-width:4; stroke-opacity:1; fill:none" points="
  234.82,1486.45 234.82,47.2441 
  "/>
<polyline clip-path="url(#clip100)" style="stroke:#000000; stroke-width:4; stroke-opacity:1; fill:none" points="
  234.82,1445.72 260.235,1445.72 
  "/>
<polyline clip-path="url(#clip100)" style="stroke:#000000; stroke-width:4; stroke-opacity:1; fill:none" points="
  234.82,1098.22 260.235,1098.22 
  "/>
<polyline clip-path="url(#clip100)" style="stroke:#000000; stroke-width:4; stroke-opacity:1; fill:none" points="
  234.82,750.722 260.235,750.722 
  "/>
<polyline clip-path="url(#clip100)" style="stroke:#000000; stroke-width:4; stroke-opacity:1; fill:none" points="
  234.82,403.225 260.235,403.225 
  "/>
<polyline clip-path="url(#clip100)" style="stroke:#000000; stroke-width:4; stroke-opacity:1; fill:none" points="
  234.82,55.7286 260.235,55.7286 
  "/>
<path clip-path="url(#clip100)" d="M 0 0 M149.908 1431.51 Q146.297 1431.51 144.468 1435.08 Q142.663 1438.62 142.663 1445.75 Q142.663 1452.86 144.468 1456.42 Q146.297 1459.96 149.908 1459.96 Q153.542 1459.96 155.348 1456.42 Q157.177 1452.86 157.177 1445.75 Q157.177 1438.62 155.348 1435.08 Q153.542 1431.51 149.908 1431.51 M149.908 1427.81 Q155.718 1427.81 158.774 1432.42 Q161.852 1437 161.852 1445.75 Q161.852 1454.48 158.774 1459.08 Q155.718 1463.67 149.908 1463.67 Q144.098 1463.67 141.019 1459.08 Q137.964 1454.48 137.964 1445.75 Q137.964 1437 141.019 1432.42 Q144.098 1427.81 149.908 1427.81 Z" fill="#000000" fill-rule="evenodd" fill-opacity="1" /><path clip-path="url(#clip100)" d="M 0 0 M166.922 1457.12 L171.806 1457.12 L171.806 1463 L166.922 1463 L166.922 1457.12 Z" fill="#000000" fill-rule="evenodd" fill-opacity="1" /><path clip-path="url(#clip100)" d="M 0 0 M186.876 1431.51 Q183.264 1431.51 181.436 1435.08 Q179.63 1438.62 179.63 1445.75 Q179.63 1452.86 181.436 1456.42 Q183.264 1459.96 186.876 1459.96 Q190.51 1459.96 192.315 1456.42 Q194.144 1452.86 194.144 1445.75 Q194.144 1438.62 192.315 1435.08 Q190.51 1431.51 186.876 1431.51 M186.876 1427.81 Q192.686 1427.81 195.741 1432.42 Q198.82 1437 198.82 1445.75 Q198.82 1454.48 195.741 1459.08 Q192.686 1463.67 186.876 1463.67 Q181.065 1463.67 177.987 1459.08 Q174.931 1454.48 174.931 1445.75 Q174.931 1437 177.987 1432.42 Q181.065 1427.81 186.876 1427.81 Z" fill="#000000" fill-rule="evenodd" fill-opacity="1" /><path clip-path="url(#clip100)" d="M 0 0 M146.529 1111.56 L162.848 1111.56 L162.848 1115.5 L140.904 1115.5 L140.904 1111.56 Q143.566 1108.81 148.149 1104.18 Q152.755 1099.53 153.936 1098.18 Q156.181 1095.66 157.061 1093.92 Q157.964 1092.17 157.964 1090.48 Q157.964 1087.72 156.019 1085.99 Q154.098 1084.25 150.996 1084.25 Q148.797 1084.25 146.343 1085.01 Q143.913 1085.78 141.135 1087.33 L141.135 1082.61 Q143.959 1081.47 146.413 1080.89 Q148.866 1080.31 150.903 1080.31 Q156.274 1080.31 159.468 1083 Q162.663 1085.68 162.663 1090.17 Q162.663 1092.3 161.852 1094.23 Q161.065 1096.12 158.959 1098.72 Q158.38 1099.39 155.278 1102.61 Q152.177 1105.8 146.529 1111.56 Z" fill="#000000" fill-rule="evenodd" fill-opacity="1" /><path clip-path="url(#clip100)" d="M 0 0 M167.917 1109.62 L172.802 1109.62 L172.802 1115.5 L167.917 1115.5 L167.917 1109.62 Z" fill="#000000" fill-rule="evenodd" fill-opacity="1" /><path clip-path="url(#clip100)" d="M 0 0 M177.917 1080.94 L196.274 1080.94 L196.274 1084.87 L182.2 1084.87 L182.2 1093.35 Q183.218 1093 184.237 1092.84 Q185.255 1092.65 186.274 1092.65 Q192.061 1092.65 195.44 1095.82 Q198.82 1098.99 198.82 1104.41 Q198.82 1109.99 195.348 1113.09 Q191.875 1116.17 185.556 1116.17 Q183.38 1116.17 181.112 1115.8 Q178.866 1115.43 176.459 1114.69 L176.459 1109.99 Q178.542 1111.12 180.764 1111.68 Q182.987 1112.24 185.463 1112.24 Q189.468 1112.24 191.806 1110.13 Q194.144 1108.02 194.144 1104.41 Q194.144 1100.8 191.806 1098.69 Q189.468 1096.59 185.463 1096.59 Q183.588 1096.59 181.713 1097 Q179.862 1097.42 177.917 1098.3 L177.917 1080.94 Z" fill="#000000" fill-rule="evenodd" fill-opacity="1" /><path clip-path="url(#clip100)" d="M 0 0 M140.95 733.442 L159.306 733.442 L159.306 737.377 L145.232 737.377 L145.232 745.849 Q146.251 745.502 147.269 745.34 Q148.288 745.155 149.306 745.155 Q155.093 745.155 158.473 748.326 Q161.852 751.498 161.852 756.914 Q161.852 762.493 158.38 765.595 Q154.908 768.673 148.589 768.673 Q146.413 768.673 144.144 768.303 Q141.899 767.933 139.492 767.192 L139.492 762.493 Q141.575 763.627 143.797 764.183 Q146.019 764.738 148.496 764.738 Q152.501 764.738 154.839 762.632 Q157.177 760.525 157.177 756.914 Q157.177 753.303 154.839 751.197 Q152.501 749.09 148.496 749.09 Q146.621 749.09 144.746 749.507 Q142.894 749.924 140.95 750.803 L140.95 733.442 Z" fill="#000000" fill-rule="evenodd" fill-opacity="1" /><path clip-path="url(#clip100)" d="M 0 0 M166.922 762.123 L171.806 762.123 L171.806 768.002 L166.922 768.002 L166.922 762.123 Z" fill="#000000" fill-rule="evenodd" fill-opacity="1" /><path clip-path="url(#clip100)" d="M 0 0 M186.876 736.521 Q183.264 736.521 181.436 740.086 Q179.63 743.627 179.63 750.757 Q179.63 757.863 181.436 761.428 Q183.264 764.97 186.876 764.97 Q190.51 764.97 192.315 761.428 Q194.144 757.863 194.144 750.757 Q194.144 743.627 192.315 740.086 Q190.51 736.521 186.876 736.521 M186.876 732.817 Q192.686 732.817 195.741 737.424 Q198.82 742.007 198.82 750.757 Q198.82 759.484 195.741 764.09 Q192.686 768.673 186.876 768.673 Q181.065 768.673 177.987 764.09 Q174.931 759.484 174.931 750.757 Q174.931 742.007 177.987 737.424 Q181.065 732.817 186.876 732.817 Z" fill="#000000" fill-rule="evenodd" fill-opacity="1" /><path clip-path="url(#clip100)" d="M 0 0 M140.626 385.945 L162.848 385.945 L162.848 387.936 L150.302 420.505 L145.417 420.505 L157.223 389.881 L140.626 389.881 L140.626 385.945 Z" fill="#000000" fill-rule="evenodd" fill-opacity="1" /><path clip-path="url(#clip100)" d="M 0 0 M167.917 414.626 L172.802 414.626 L172.802 420.505 L167.917 420.505 L167.917 414.626 Z" fill="#000000" fill-rule="evenodd" fill-opacity="1" /><path clip-path="url(#clip100)" d="M 0 0 M177.917 385.945 L196.274 385.945 L196.274 389.881 L182.2 389.881 L182.2 398.353 Q183.218 398.005 184.237 397.843 Q185.255 397.658 186.274 397.658 Q192.061 397.658 195.44 400.83 Q198.82 404.001 198.82 409.417 Q198.82 414.996 195.348 418.098 Q191.875 421.177 185.556 421.177 Q183.38 421.177 181.112 420.806 Q178.866 420.436 176.459 419.695 L176.459 414.996 Q178.542 416.13 180.764 416.686 Q182.987 417.241 185.463 417.241 Q189.468 417.241 191.806 415.135 Q194.144 413.029 194.144 409.417 Q194.144 405.806 191.806 403.7 Q189.468 401.593 185.463 401.593 Q183.588 401.593 181.713 402.01 Q179.862 402.427 177.917 403.306 L177.917 385.945 Z" fill="#000000" fill-rule="evenodd" fill-opacity="1" /><path clip-path="url(#clip100)" d="M 0 0 M114.931 69.0734 L122.57 69.0734 L122.57 42.7078 L114.26 44.3745 L114.26 40.1152 L122.524 38.4486 L127.2 38.4486 L127.2 69.0734 L134.839 69.0734 L134.839 73.0086 L114.931 73.0086 L114.931 69.0734 Z" fill="#000000" fill-rule="evenodd" fill-opacity="1" /><path clip-path="url(#clip100)" d="M 0 0 M149.908 41.5273 Q146.297 41.5273 144.468 45.0921 Q142.663 48.6337 142.663 55.7633 Q142.663 62.8697 144.468 66.4345 Q146.297 69.9762 149.908 69.9762 Q153.542 69.9762 155.348 66.4345 Q157.177 62.8697 157.177 55.7633 Q157.177 48.6337 155.348 45.0921 Q153.542 41.5273 149.908 41.5273 M149.908 37.8236 Q155.718 37.8236 158.774 42.43 Q161.852 47.0133 161.852 55.7633 Q161.852 64.4901 158.774 69.0966 Q155.718 73.6799 149.908 73.6799 Q144.098 73.6799 141.019 69.0966 Q137.964 64.4901 137.964 55.7633 Q137.964 47.0133 141.019 42.43 Q144.098 37.8236 149.908 37.8236 Z" fill="#000000" fill-rule="evenodd" fill-opacity="1" /><path clip-path="url(#clip100)" d="M 0 0 M166.922 67.129 L171.806 67.129 L171.806 73.0086 L166.922 73.0086 L166.922 67.129 Z" fill="#000000" fill-rule="evenodd" fill-opacity="1" /><path clip-path="url(#clip100)" d="M 0 0 M186.876 41.5273 Q183.264 41.5273 181.436 45.0921 Q179.63 48.6337 179.63 55.7633 Q179.63 62.8697 181.436 66.4345 Q183.264 69.9762 186.876 69.9762 Q190.51 69.9762 192.315 66.4345 Q194.144 62.8697 194.144 55.7633 Q194.144 48.6337 192.315 45.0921 Q190.51 41.5273 186.876 41.5273 M186.876 37.8236 Q192.686 37.8236 195.741 42.43 Q198.82 47.0133 198.82 55.7633 Q198.82 64.4901 195.741 69.0966 Q192.686 73.6799 186.876 73.6799 Q181.065 73.6799 177.987 69.0966 Q174.931 64.4901 174.931 55.7633 Q174.931 47.0133 177.987 42.43 Q181.065 37.8236 186.876 37.8236 Z" fill="#000000" fill-rule="evenodd" fill-opacity="1" /><path clip-path="url(#clip100)" d="M 0 0 M16.4842 1094.06 L16.4842 1053.86 L21.895 1053.86 L21.895 1070.73 L64.0042 1070.73 L64.0042 1077.19 L21.895 1077.19 L21.895 1094.06 L16.4842 1094.06 Z" fill="#000000" fill-rule="evenodd" fill-opacity="1" /><path clip-path="url(#clip100)" d="M 0 0 M28.3562 1049.72 L28.3562 1043.87 L64.0042 1043.87 L64.0042 1049.72 L28.3562 1049.72 M14.479 1049.72 L14.479 1043.87 L21.895 1043.87 L21.895 1049.72 L14.479 1049.72 Z" fill="#000000" fill-rule="evenodd" fill-opacity="1" /><path clip-path="url(#clip100)" d="M 0 0 M35.1993 1009.97 Q31.2526 1007.77 29.3747 1004.72 Q27.4968 1001.66 27.4968 997.523 Q27.4968 991.953 31.4117 988.93 Q35.2948 985.906 42.4881 985.906 L64.0042 985.906 L64.0042 991.794 L42.679 991.794 Q37.5546 991.794 35.072 993.608 Q32.5894 995.423 32.5894 999.147 Q32.5894 1003.7 35.6131 1006.34 Q38.6368 1008.98 43.8567 1008.98 L64.0042 1008.98 L64.0042 1014.87 L42.679 1014.87 Q37.5228 1014.87 35.072 1016.68 Q32.5894 1018.5 32.5894 1022.29 Q32.5894 1026.77 35.6449 1029.42 Q38.6686 1032.06 43.8567 1032.06 L64.0042 1032.06 L64.0042 1037.95 L28.3562 1037.95 L28.3562 1032.06 L33.8944 1032.06 Q30.616 1030.05 29.0564 1027.25 Q27.4968 1024.45 27.4968 1020.6 Q27.4968 1016.72 29.4702 1014.01 Q31.4436 1011.27 35.1993 1009.97 Z" fill="#000000" fill-rule="evenodd" fill-opacity="1" /><path clip-path="url(#clip100)" d="M 0 0 M44.7161 949.271 L47.5806 949.271 L47.5806 976.198 Q53.6281 975.816 56.8109 972.57 Q59.9619 969.291 59.9619 963.467 Q59.9619 960.093 59.1344 956.942 Q58.3069 953.759 56.6518 950.64 L62.1899 950.64 Q63.5267 953.791 64.227 957.101 Q64.9272 960.411 64.9272 963.817 Q64.9272 972.347 59.9619 977.344 Q54.9967 982.309 46.5303 982.309 Q37.7774 982.309 32.6531 977.599 Q27.4968 972.856 27.4968 964.835 Q27.4968 957.642 32.1438 953.473 Q36.7589 949.271 44.7161 949.271 M42.9973 955.128 Q38.1912 955.191 35.3266 957.833 Q32.4621 960.443 32.4621 964.772 Q32.4621 969.673 35.2312 972.633 Q38.0002 975.562 43.0292 976.007 L42.9973 955.128 Z" fill="#000000" fill-rule="evenodd" fill-opacity="1" /><path clip-path="url(#clip100)" d="M 0 0 M58.657 916.742 L77.5631 916.742 L77.5631 922.631 L28.3562 922.631 L28.3562 916.742 L33.7671 916.742 Q30.5842 914.896 29.0564 912.095 Q27.4968 909.263 27.4968 905.348 Q27.4968 898.855 32.6531 894.813 Q37.8093 890.739 46.212 890.739 Q54.6147 890.739 59.771 894.813 Q64.9272 898.855 64.9272 905.348 Q64.9272 909.263 63.3994 912.095 Q61.8398 914.896 58.657 916.742 M46.212 896.818 Q39.7508 896.818 36.0905 899.491 Q32.3984 902.133 32.3984 906.78 Q32.3984 911.427 36.0905 914.101 Q39.7508 916.742 46.212 916.742 Q52.6732 916.742 56.3653 914.101 Q60.0256 911.427 60.0256 906.78 Q60.0256 902.133 56.3653 899.491 Q52.6732 896.818 46.212 896.818 Z" fill="#000000" fill-rule="evenodd" fill-opacity="1" /><path clip-path="url(#clip100)" d="M 0 0 M44.7161 854.104 L47.5806 854.104 L47.5806 881.031 Q53.6281 880.649 56.8109 877.402 Q59.9619 874.124 59.9619 868.299 Q59.9619 864.926 59.1344 861.775 Q58.3069 858.592 56.6518 855.473 L62.1899 855.473 Q63.5267 858.624 64.227 861.934 Q64.9272 865.244 64.9272 868.65 Q64.9272 877.18 59.9619 882.177 Q54.9967 887.142 46.5303 887.142 Q37.7774 887.142 32.6531 882.431 Q27.4968 877.689 27.4968 869.668 Q27.4968 862.475 32.1438 858.305 Q36.7589 854.104 44.7161 854.104 M42.9973 859.96 Q38.1912 860.024 35.3266 862.666 Q32.4621 865.276 32.4621 869.604 Q32.4621 874.506 35.2312 877.466 Q38.0002 880.394 43.0292 880.84 L42.9973 859.96 Z" fill="#000000" fill-rule="evenodd" fill-opacity="1" /><path clip-path="url(#clip100)" d="M 0 0 M33.8307 827.304 Q33.2578 828.291 33.0032 829.469 Q32.7167 830.614 32.7167 832.015 Q32.7167 836.98 35.9632 839.654 Q39.1779 842.296 45.2253 842.296 L64.0042 842.296 L64.0042 848.184 L28.3562 848.184 L28.3562 842.296 L33.8944 842.296 Q30.6479 840.449 29.0883 837.489 Q27.4968 834.529 27.4968 830.296 Q27.4968 829.691 27.5923 828.959 Q27.656 828.227 27.8151 827.336 L33.8307 827.304 Z" fill="#000000" fill-rule="evenodd" fill-opacity="1" /><path clip-path="url(#clip100)" d="M 0 0 M44.7161 769.949 L47.5806 769.949 L47.5806 796.876 Q53.6281 796.494 56.8109 793.248 Q59.9619 789.969 59.9619 784.145 Q59.9619 780.771 59.1344 777.62 Q58.3069 774.437 56.6518 771.318 L62.1899 771.318 Q63.5267 774.469 64.227 777.779 Q64.9272 781.089 64.9272 784.495 Q64.9272 793.025 59.9619 798.022 Q54.9967 802.987 46.5303 802.987 Q37.7774 802.987 32.6531 798.277 Q27.4968 793.534 27.4968 785.513 Q27.4968 778.32 32.1438 774.151 Q36.7589 769.949 44.7161 769.949 M42.9973 775.806 Q38.1912 775.869 35.3266 778.511 Q32.4621 781.121 32.4621 785.45 Q32.4621 790.351 35.2312 793.311 Q38.0002 796.24 43.0292 796.685 L42.9973 775.806 Z" fill="#000000" fill-rule="evenodd" fill-opacity="1" /><path clip-path="url(#clip100)" d="M 0 0 M14.479 763.806 L14.479 757.95 L64.0042 757.95 L64.0042 763.806 L14.479 763.806 Z" fill="#000000" fill-rule="evenodd" fill-opacity="1" /><path clip-path="url(#clip100)" d="M 0 0 M44.7161 721.315 L47.5806 721.315 L47.5806 748.242 Q53.6281 747.86 56.8109 744.614 Q59.9619 741.335 59.9619 735.511 Q59.9619 732.137 59.1344 728.986 Q58.3069 725.803 56.6518 722.684 L62.1899 722.684 Q63.5267 725.835 64.227 729.145 Q64.9272 732.455 64.9272 735.861 Q64.9272 744.391 59.9619 749.388 Q54.9967 754.353 46.5303 754.353 Q37.7774 754.353 32.6531 749.643 Q27.4968 744.9 27.4968 736.879 Q27.4968 729.686 32.1438 725.517 Q36.7589 721.315 44.7161 721.315 M42.9973 727.172 Q38.1912 727.235 35.3266 729.877 Q32.4621 732.487 32.4621 736.816 Q32.4621 741.717 35.2312 744.677 Q38.0002 747.606 43.0292 748.051 L42.9973 727.172 Z" fill="#000000" fill-rule="evenodd" fill-opacity="1" /><path clip-path="url(#clip100)" d="M 0 0 M35.1993 687.418 Q31.2526 685.222 29.3747 682.166 Q27.4968 679.111 27.4968 674.973 Q27.4968 669.403 31.4117 666.379 Q35.2948 663.356 42.4881 663.356 L64.0042 663.356 L64.0042 669.244 L42.679 669.244 Q37.5546 669.244 35.072 671.058 Q32.5894 672.872 32.5894 676.596 Q32.5894 681.148 35.6131 683.789 Q38.6368 686.431 43.8567 686.431 L64.0042 686.431 L64.0042 692.319 L42.679 692.319 Q37.5228 692.319 35.072 694.134 Q32.5894 695.948 32.5894 699.736 Q32.5894 704.223 35.6449 706.865 Q38.6686 709.507 43.8567 709.507 L64.0042 709.507 L64.0042 715.395 L28.3562 715.395 L28.3562 709.507 L33.8944 709.507 Q30.616 707.502 29.0564 704.701 Q27.4968 701.9 27.4968 698.049 Q27.4968 694.166 29.4702 691.46 Q31.4436 688.723 35.1993 687.418 Z" fill="#000000" fill-rule="evenodd" fill-opacity="1" /><path clip-path="url(#clip100)" d="M 0 0 M44.7161 626.721 L47.5806 626.721 L47.5806 653.648 Q53.6281 653.266 56.8109 650.019 Q59.9619 646.741 59.9619 640.916 Q59.9619 637.543 59.1344 634.392 Q58.3069 631.209 56.6518 628.089 L62.1899 628.089 Q63.5267 631.241 64.227 634.551 Q64.9272 637.861 64.9272 641.267 Q64.9272 649.797 59.9619 654.794 Q54.9967 659.759 46.5303 659.759 Q37.7774 659.759 32.6531 655.048 Q27.4968 650.306 27.4968 642.285 Q27.4968 635.092 32.1438 630.922 Q36.7589 626.721 44.7161 626.721 M42.9973 632.577 Q38.1912 632.641 35.3266 635.283 Q32.4621 637.893 32.4621 642.221 Q32.4621 647.123 35.2312 650.083 Q38.0002 653.011 43.0292 653.457 L42.9973 632.577 Z" fill="#000000" fill-rule="evenodd" fill-opacity="1" /><path clip-path="url(#clip100)" d="M 0 0 M42.4881 590.946 L64.0042 590.946 L64.0042 596.802 L42.679 596.802 Q37.6183 596.802 35.1038 598.775 Q32.5894 600.749 32.5894 604.696 Q32.5894 609.438 35.6131 612.175 Q38.6368 614.912 43.8567 614.912 L64.0042 614.912 L64.0042 620.801 L28.3562 620.801 L28.3562 614.912 L33.8944 614.912 Q30.6797 612.812 29.0883 609.979 Q27.4968 607.114 27.4968 603.391 Q27.4968 597.248 31.3163 594.097 Q35.1038 590.946 42.4881 590.946 Z" fill="#000000" fill-rule="evenodd" fill-opacity="1" /><path clip-path="url(#clip100)" d="M 0 0 M18.2347 579.01 L28.3562 579.01 L28.3562 566.947 L32.9077 566.947 L32.9077 579.01 L52.2594 579.01 Q56.6199 579.01 57.8613 577.832 Q59.1026 576.623 59.1026 572.962 L59.1026 566.947 L64.0042 566.947 L64.0042 572.962 Q64.0042 579.742 61.4897 582.32 Q58.9434 584.898 52.2594 584.898 L32.9077 584.898 L32.9077 589.195 L28.3562 589.195 L28.3562 584.898 L18.2347 584.898 L18.2347 579.01 Z" fill="#000000" fill-rule="evenodd" fill-opacity="1" /><path clip-path="url(#clip100)" d="M 0 0 M14.5426 526.015 Q21.8632 530.28 29.0246 532.349 Q36.186 534.418 43.5384 534.418 Q50.8908 534.418 58.1159 532.349 Q65.3091 530.249 72.5979 526.015 L72.5979 531.108 Q65.1182 535.882 57.8931 538.269 Q50.668 540.625 43.5384 540.625 Q36.4406 540.625 29.2474 538.269 Q22.0542 535.914 14.5426 531.108 L14.5426 526.015 Z" fill="#000000" fill-rule="evenodd" fill-opacity="1" /><path clip-path="url(#clip100)" d="M 0 0 M42.4881 490.24 L64.0042 490.24 L64.0042 496.097 L42.679 496.097 Q37.6183 496.097 35.1038 498.07 Q32.5894 500.043 32.5894 503.99 Q32.5894 508.732 35.6131 511.47 Q38.6368 514.207 43.8567 514.207 L64.0042 514.207 L64.0042 520.095 L28.3562 520.095 L28.3562 514.207 L33.8944 514.207 Q30.6797 512.106 29.0883 509.274 Q27.4968 506.409 27.4968 502.685 Q27.4968 496.542 31.3163 493.391 Q35.1038 490.24 42.4881 490.24 Z" fill="#000000" fill-rule="evenodd" fill-opacity="1" /><path clip-path="url(#clip100)" d="M 0 0 M29.4065 461.372 L34.9447 461.372 Q33.6716 463.854 33.035 466.528 Q32.3984 469.201 32.3984 472.066 Q32.3984 476.427 33.7352 478.623 Q35.072 480.787 37.7456 480.787 Q39.7826 480.787 40.9603 479.227 Q42.1061 477.668 43.1565 472.957 L43.6021 470.952 Q44.9389 464.714 47.3897 462.104 Q49.8086 459.462 54.1691 459.462 Q59.1344 459.462 62.0308 463.409 Q64.9272 467.324 64.9272 474.199 Q64.9272 477.063 64.3543 480.182 Q63.8132 483.27 62.6992 486.707 L56.6518 486.707 Q58.3387 483.461 59.198 480.31 Q60.0256 477.159 60.0256 474.071 Q60.0256 469.934 58.6251 467.706 Q57.1929 465.478 54.6147 465.478 Q52.2276 465.478 50.9545 467.101 Q49.6813 468.692 48.5037 474.135 L48.0262 476.172 Q46.8804 481.615 44.5251 484.034 Q42.138 486.453 38.0002 486.453 Q32.9713 486.453 30.2341 482.888 Q27.4968 479.323 27.4968 472.766 Q27.4968 469.52 27.9743 466.655 Q28.4517 463.791 29.4065 461.372 Z" fill="#000000" fill-rule="evenodd" fill-opacity="1" /><path clip-path="url(#clip100)" d="M 0 0 M14.5426 454.242 L14.5426 449.149 Q22.0542 444.375 29.2474 442.02 Q36.4406 439.633 43.5384 439.633 Q50.668 439.633 57.8931 442.02 Q65.1182 444.375 72.5979 449.149 L72.5979 454.242 Q65.3091 450.009 58.1159 447.94 Q50.8908 445.839 43.5384 445.839 Q36.186 445.839 29.0246 447.94 Q21.8632 450.009 14.5426 454.242 Z" fill="#000000" fill-rule="evenodd" fill-opacity="1" /><path clip-path="url(#clip102)" d="
M345.661 494.548 L345.661 1445.72 L545.267 1445.72 L545.267 494.548 L345.661 494.548 L345.661 494.548  Z
  " fill="#009af9" fill-rule="evenodd" fill-opacity="1"/>
<polyline clip-path="url(#clip102)" style="stroke:#000000; stroke-width:4; stroke-opacity:1; fill:none" points="
  345.661,494.548 345.661,1445.72 545.267,1445.72 545.267,494.548 345.661,494.548 
  "/>
<path clip-path="url(#clip102)" d="
M844.675 117.166 L844.675 1445.72 L1044.28 1445.72 L1044.28 117.166 L844.675 117.166 L844.675 117.166  Z
  " fill="#009af9" fill-rule="evenodd" fill-opacity="1"/>
<polyline clip-path="url(#clip102)" style="stroke:#000000; stroke-width:4; stroke-opacity:1; fill:none" points="
  844.675,117.166 844.675,1445.72 1044.28,1445.72 1044.28,117.166 844.675,117.166 
  "/>
<path clip-path="url(#clip102)" d="
M1343.69 301.895 L1343.69 1445.72 L1543.29 1445.72 L1543.29 301.895 L1343.69 301.895 L1343.69 301.895  Z
  " fill="#009af9" fill-rule="evenodd" fill-opacity="1"/>
<polyline clip-path="url(#clip102)" style="stroke:#000000; stroke-width:4; stroke-opacity:1; fill:none" points="
  1343.69,301.895 1343.69,1445.72 1543.29,1445.72 1543.29,301.895 1343.69,301.895 
  "/>
<path clip-path="url(#clip102)" d="
M1842.7 87.9763 L1842.7 1445.72 L2042.31 1445.72 L2042.31 87.9763 L1842.7 87.9763 L1842.7 87.9763  Z
  " fill="#009af9" fill-rule="evenodd" fill-opacity="1"/>
<polyline clip-path="url(#clip102)" style="stroke:#000000; stroke-width:4; stroke-opacity:1; fill:none" points="
  1842.7,87.9763 1842.7,1445.72 2042.31,1445.72 2042.31,87.9763 1842.7,87.9763 
  "/>
<path clip-path="url(#clip102)" d="
M545.267 1423.57 L545.267 1445.72 L744.872 1445.72 L744.872 1423.57 L545.267 1423.57 L545.267 1423.57  Z
  " fill="#e26f46" fill-rule="evenodd" fill-opacity="1"/>
<polyline clip-path="url(#clip102)" style="stroke:#000000; stroke-width:4; stroke-opacity:1; fill:none" points="
  545.267,1423.57 545.267,1445.72 744.872,1445.72 744.872,1423.57 545.267,1423.57 
  "/>
<path clip-path="url(#clip102)" d="
M1044.28 510.977 L1044.28 1445.72 L1243.89 1445.72 L1243.89 510.977 L1044.28 510.977 L1044.28 510.977  Z
  " fill="#e26f46" fill-rule="evenodd" fill-opacity="1"/>
<polyline clip-path="url(#clip102)" style="stroke:#000000; stroke-width:4; stroke-opacity:1; fill:none" points="
  1044.28,510.977 1044.28,1445.72 1243.89,1445.72 1243.89,510.977 1044.28,510.977 
  "/>
<path clip-path="url(#clip102)" d="
M1543.29 1417.46 L1543.29 1445.72 L1742.9 1445.72 L1742.9 1417.46 L1543.29 1417.46 L1543.29 1417.46  Z
  " fill="#e26f46" fill-rule="evenodd" fill-opacity="1"/>
<polyline clip-path="url(#clip102)" style="stroke:#000000; stroke-width:4; stroke-opacity:1; fill:none" points="
  1543.29,1417.46 1543.29,1445.72 1742.9,1445.72 1742.9,1417.46 1543.29,1417.46 
  "/>
<path clip-path="url(#clip102)" d="
M2042.31 471.543 L2042.31 1445.72 L2241.91 1445.72 L2241.91 471.543 L2042.31 471.543 L2042.31 471.543  Z
  " fill="#e26f46" fill-rule="evenodd" fill-opacity="1"/>
<polyline clip-path="url(#clip102)" style="stroke:#000000; stroke-width:4; stroke-opacity:1; fill:none" points="
  2042.31,471.543 2042.31,1445.72 2241.91,1445.72 2241.91,471.543 2042.31,471.543 
  "/>
<path clip-path="url(#clip100)" d="
M305.418 276.658 L891.923 276.658 L891.923 95.2176 L305.418 95.2176  Z
  " fill="#ffffff" fill-rule="evenodd" fill-opacity="1"/>
<polyline clip-path="url(#clip100)" style="stroke:#000000; stroke-width:4; stroke-opacity:1; fill:none" points="
  305.418,276.658 891.923,276.658 891.923,95.2176 305.418,95.2176 305.418,276.658 
  "/>
<path clip-path="url(#clip100)" d="
M328.95 179.89 L470.146 179.89 L470.146 131.506 L328.95 131.506 L328.95 179.89  Z
  " fill="#009af9" fill-rule="evenodd" fill-opacity="1"/>
<polyline clip-path="url(#clip100)" style="stroke:#000000; stroke-width:4; stroke-opacity:1; fill:none" points="
  328.95,179.89 470.146,179.89 470.146,131.506 328.95,131.506 328.95,179.89 
  "/>
<path clip-path="url(#clip100)" d="M 0 0 M498.355 142.26 L498.355 169.135 L504.003 169.135 Q511.155 169.135 514.466 165.894 Q517.799 162.654 517.799 155.663 Q517.799 148.718 514.466 145.501 Q511.155 142.26 504.003 142.26 L498.355 142.26 M493.679 138.418 L503.285 138.418 Q513.331 138.418 518.03 142.607 Q522.73 146.774 522.73 155.663 Q522.73 164.598 518.007 168.788 Q513.285 172.978 503.285 172.978 L493.679 172.978 L493.679 138.418 Z" fill="#000000" fill-rule="evenodd" fill-opacity="1" /><path clip-path="url(#clip100)" d="M 0 0 M527.197 147.052 L531.456 147.052 L531.456 172.978 L527.197 172.978 L527.197 147.052 M527.197 136.959 L531.456 136.959 L531.456 142.353 L527.197 142.353 L527.197 136.959 Z" fill="#000000" fill-rule="evenodd" fill-opacity="1" /><path clip-path="url(#clip100)" d="M 0 0 M552.452 147.816 L552.452 151.843 Q550.646 150.917 548.702 150.455 Q546.757 149.992 544.674 149.992 Q541.503 149.992 539.905 150.964 Q538.331 151.936 538.331 153.88 Q538.331 155.362 539.466 156.218 Q540.6 157.052 544.026 157.816 L545.484 158.14 Q550.021 159.112 551.919 160.894 Q553.84 162.654 553.84 165.825 Q553.84 169.436 550.97 171.542 Q548.123 173.649 543.123 173.649 Q541.04 173.649 538.771 173.232 Q536.526 172.839 534.026 172.028 L534.026 167.63 Q536.387 168.857 538.678 169.482 Q540.97 170.084 543.216 170.084 Q546.225 170.084 547.845 169.066 Q549.465 168.024 549.465 166.149 Q549.465 164.413 548.285 163.487 Q547.128 162.561 543.169 161.704 L541.688 161.357 Q537.729 160.524 535.97 158.811 Q534.211 157.075 534.211 154.066 Q534.211 150.408 536.804 148.418 Q539.396 146.427 544.165 146.427 Q546.526 146.427 548.609 146.774 Q550.692 147.121 552.452 147.816 Z" fill="#000000" fill-rule="evenodd" fill-opacity="1" /><path clip-path="url(#clip100)" d="M 0 0 M562.521 139.691 L562.521 147.052 L571.294 147.052 L571.294 150.362 L562.521 150.362 L562.521 164.436 Q562.521 167.607 563.377 168.51 Q564.257 169.413 566.919 169.413 L571.294 169.413 L571.294 172.978 L566.919 172.978 Q561.989 172.978 560.114 171.149 Q558.239 169.297 558.239 164.436 L558.239 150.362 L555.114 150.362 L555.114 147.052 L558.239 147.052 L558.239 139.691 L562.521 139.691 Z" fill="#000000" fill-rule="evenodd" fill-opacity="1" /><path clip-path="url(#clip100)" d="M 0 0 M590.785 151.033 Q590.067 150.617 589.211 150.431 Q588.377 150.223 587.359 150.223 Q583.748 150.223 581.803 152.584 Q579.882 154.922 579.882 159.32 L579.882 172.978 L575.6 172.978 L575.6 147.052 L579.882 147.052 L579.882 151.08 Q581.225 148.718 583.377 147.584 Q585.53 146.427 588.609 146.427 Q589.049 146.427 589.581 146.496 Q590.113 146.543 590.762 146.658 L590.785 151.033 Z" fill="#000000" fill-rule="evenodd" fill-opacity="1" /><path clip-path="url(#clip100)" d="M 0 0 M595.252 147.052 L599.512 147.052 L599.512 172.978 L595.252 172.978 L595.252 147.052 M595.252 136.959 L599.512 136.959 L599.512 142.353 L595.252 142.353 L595.252 136.959 Z" fill="#000000" fill-rule="evenodd" fill-opacity="1" /><path clip-path="url(#clip100)" d="M 0 0 M622.59 160.038 Q622.59 155.339 620.646 152.677 Q618.724 149.992 615.345 149.992 Q611.965 149.992 610.021 152.677 Q608.099 155.339 608.099 160.038 Q608.099 164.737 610.021 167.422 Q611.965 170.084 615.345 170.084 Q618.724 170.084 620.646 167.422 Q622.59 164.737 622.59 160.038 M608.099 150.987 Q609.442 148.672 611.479 147.561 Q613.539 146.427 616.386 146.427 Q621.109 146.427 624.048 150.177 Q627.011 153.927 627.011 160.038 Q627.011 166.149 624.048 169.899 Q621.109 173.649 616.386 173.649 Q613.539 173.649 611.479 172.538 Q609.442 171.403 608.099 169.089 L608.099 172.978 L603.817 172.978 L603.817 136.959 L608.099 136.959 L608.099 150.987 Z" fill="#000000" fill-rule="evenodd" fill-opacity="1" /><path clip-path="url(#clip100)" d="M 0 0 M631.039 162.746 L631.039 147.052 L635.298 147.052 L635.298 162.584 Q635.298 166.265 636.734 168.116 Q638.169 169.945 641.039 169.945 Q644.488 169.945 646.479 167.746 Q648.493 165.547 648.493 161.751 L648.493 147.052 L652.752 147.052 L652.752 172.978 L648.493 172.978 L648.493 168.996 Q646.942 171.357 644.882 172.515 Q642.845 173.649 640.136 173.649 Q635.669 173.649 633.354 170.871 Q631.039 168.093 631.039 162.746 M641.757 146.427 L641.757 146.427 Z" fill="#000000" fill-rule="evenodd" fill-opacity="1" /><path clip-path="url(#clip100)" d="M 0 0 M661.432 139.691 L661.432 147.052 L670.206 147.052 L670.206 150.362 L661.432 150.362 L661.432 164.436 Q661.432 167.607 662.289 168.51 Q663.169 169.413 665.831 169.413 L670.206 169.413 L670.206 172.978 L665.831 172.978 Q660.9 172.978 659.025 171.149 Q657.15 169.297 657.15 164.436 L657.15 150.362 L654.025 150.362 L654.025 147.052 L657.15 147.052 L657.15 139.691 L661.432 139.691 Z" fill="#000000" fill-rule="evenodd" fill-opacity="1" /><path clip-path="url(#clip100)" d="M 0 0 M674.673 147.052 L678.932 147.052 L678.932 172.978 L674.673 172.978 L674.673 147.052 M674.673 136.959 L678.932 136.959 L678.932 142.353 L674.673 142.353 L674.673 136.959 Z" fill="#000000" fill-rule="evenodd" fill-opacity="1" /><path clip-path="url(#clip100)" d="M 0 0 M693.446 150.038 Q690.02 150.038 688.03 152.723 Q686.039 155.385 686.039 160.038 Q686.039 164.691 688.006 167.376 Q689.997 170.038 693.446 170.038 Q696.849 170.038 698.84 167.353 Q700.83 164.667 700.83 160.038 Q700.83 155.431 698.84 152.746 Q696.849 150.038 693.446 150.038 M693.446 146.427 Q699.002 146.427 702.173 150.038 Q705.344 153.649 705.344 160.038 Q705.344 166.404 702.173 170.038 Q699.002 173.649 693.446 173.649 Q687.868 173.649 684.696 170.038 Q681.548 166.404 681.548 160.038 Q681.548 153.649 684.696 150.038 Q687.868 146.427 693.446 146.427 Z" fill="#000000" fill-rule="evenodd" fill-opacity="1" /><path clip-path="url(#clip100)" d="M 0 0 M731.363 157.329 L731.363 172.978 L727.103 172.978 L727.103 157.468 Q727.103 153.788 725.668 151.959 Q724.233 150.13 721.363 150.13 Q717.914 150.13 715.923 152.33 Q713.932 154.529 713.932 158.325 L713.932 172.978 L709.65 172.978 L709.65 147.052 L713.932 147.052 L713.932 151.08 Q715.46 148.742 717.52 147.584 Q719.603 146.427 722.312 146.427 Q726.779 146.427 729.071 149.205 Q731.363 151.959 731.363 157.329 Z" fill="#000000" fill-rule="evenodd" fill-opacity="1" /><path clip-path="url(#clip100)" d="M 0 0 M752.358 147.816 L752.358 151.843 Q750.552 150.917 748.608 150.455 Q746.663 149.992 744.58 149.992 Q741.409 149.992 739.812 150.964 Q738.238 151.936 738.238 153.88 Q738.238 155.362 739.372 156.218 Q740.506 157.052 743.932 157.816 L745.39 158.14 Q749.927 159.112 751.826 160.894 Q753.747 162.654 753.747 165.825 Q753.747 169.436 750.876 171.542 Q748.029 173.649 743.029 173.649 Q740.946 173.649 738.677 173.232 Q736.432 172.839 733.932 172.028 L733.932 167.63 Q736.293 168.857 738.585 169.482 Q740.876 170.084 743.122 170.084 Q746.131 170.084 747.751 169.066 Q749.372 168.024 749.372 166.149 Q749.372 164.413 748.191 163.487 Q747.034 162.561 743.076 161.704 L741.594 161.357 Q737.636 160.524 735.877 158.811 Q734.117 157.075 734.117 154.066 Q734.117 150.408 736.71 148.418 Q739.302 146.427 744.071 146.427 Q746.432 146.427 748.515 146.774 Q750.599 147.121 752.358 147.816 Z" fill="#000000" fill-rule="evenodd" fill-opacity="1" /><path clip-path="url(#clip100)" d="M 0 0 M758.816 167.098 L763.7 167.098 L763.7 172.978 L758.816 172.978 L758.816 167.098 Z" fill="#000000" fill-rule="evenodd" fill-opacity="1" /><path clip-path="url(#clip100)" d="M 0 0 M768.168 147.052 L772.427 147.052 L772.427 173.441 Q772.427 178.394 770.529 180.616 Q768.654 182.839 764.464 182.839 L762.844 182.839 L762.844 179.228 L763.978 179.228 Q766.409 179.228 767.288 178.093 Q768.168 176.982 768.168 173.441 L768.168 147.052 M768.168 136.959 L772.427 136.959 L772.427 142.353 L768.168 142.353 L768.168 136.959 Z" fill="#000000" fill-rule="evenodd" fill-opacity="1" /><path clip-path="url(#clip100)" d="M 0 0 M776.895 136.959 L781.154 136.959 L781.154 172.978 L776.895 172.978 L776.895 136.959 Z" fill="#000000" fill-rule="evenodd" fill-opacity="1" /><path clip-path="url(#clip100)" d="
M328.95 240.37 L470.146 240.37 L470.146 191.986 L328.95 191.986 L328.95 240.37  Z
  " fill="#e26f46" fill-rule="evenodd" fill-opacity="1"/>
<polyline clip-path="url(#clip100)" style="stroke:#000000; stroke-width:4; stroke-opacity:1; fill:none" points="
  328.95,240.37 470.146,240.37 470.146,191.986 328.95,191.986 328.95,240.37 
  "/>
<path clip-path="url(#clip100)" d="M 0 0 M493.679 198.898 L500.646 198.898 L509.466 222.416 L518.331 198.898 L525.299 198.898 L525.299 233.458 L520.739 233.458 L520.739 203.11 L511.827 226.814 L507.128 226.814 L498.216 203.11 L498.216 233.458 L493.679 233.458 L493.679 198.898 Z" fill="#000000" fill-rule="evenodd" fill-opacity="1" /><path clip-path="url(#clip100)" d="M 0 0 M551.942 219.43 L551.942 221.513 L532.359 221.513 Q532.637 225.911 534.998 228.226 Q537.382 230.518 541.618 230.518 Q544.072 230.518 546.364 229.916 Q548.678 229.314 550.947 228.11 L550.947 232.138 Q548.655 233.11 546.248 233.62 Q543.841 234.129 541.364 234.129 Q535.16 234.129 531.526 230.518 Q527.915 226.907 527.915 220.749 Q527.915 214.384 531.341 210.657 Q534.79 206.907 540.623 206.907 Q545.854 206.907 548.887 210.286 Q551.942 213.643 551.942 219.43 M547.683 218.18 Q547.637 214.685 545.715 212.601 Q543.817 210.518 540.669 210.518 Q537.104 210.518 534.952 212.532 Q532.822 214.546 532.498 218.203 L547.683 218.18 Z" fill="#000000" fill-rule="evenodd" fill-opacity="1" /><path clip-path="url(#clip100)" d="M 0 0 M568.192 220.425 Q563.03 220.425 561.039 221.606 Q559.049 222.786 559.049 225.634 Q559.049 227.902 560.53 229.245 Q562.035 230.564 564.604 230.564 Q568.146 230.564 570.276 228.064 Q572.428 225.541 572.428 221.374 L572.428 220.425 L568.192 220.425 M576.688 218.666 L576.688 233.458 L572.428 233.458 L572.428 229.522 Q570.97 231.883 568.794 233.018 Q566.618 234.129 563.47 234.129 Q559.489 234.129 557.127 231.907 Q554.79 229.661 554.79 225.911 Q554.79 221.536 557.706 219.314 Q560.646 217.092 566.456 217.092 L572.428 217.092 L572.428 216.675 Q572.428 213.735 570.484 212.138 Q568.563 210.518 565.067 210.518 Q562.845 210.518 560.739 211.05 Q558.632 211.583 556.688 212.647 L556.688 208.712 Q559.026 207.81 561.225 207.37 Q563.424 206.907 565.507 206.907 Q571.132 206.907 573.91 209.823 Q576.688 212.74 576.688 218.666 Z" fill="#000000" fill-rule="evenodd" fill-opacity="1" /><path clip-path="url(#clip100)" d="M 0 0 M597.683 208.296 L597.683 212.323 Q595.877 211.397 593.933 210.935 Q591.988 210.472 589.905 210.472 Q586.734 210.472 585.137 211.444 Q583.563 212.416 583.563 214.36 Q583.563 215.842 584.697 216.698 Q585.831 217.532 589.257 218.296 L590.715 218.62 Q595.252 219.592 597.15 221.374 Q599.072 223.134 599.072 226.305 Q599.072 229.916 596.201 232.022 Q593.354 234.129 588.354 234.129 Q586.271 234.129 584.002 233.712 Q581.757 233.319 579.257 232.508 L579.257 228.11 Q581.618 229.337 583.91 229.962 Q586.201 230.564 588.447 230.564 Q591.456 230.564 593.076 229.546 Q594.697 228.504 594.697 226.629 Q594.697 224.893 593.516 223.967 Q592.359 223.041 588.4 222.184 L586.919 221.837 Q582.961 221.004 581.201 219.291 Q579.442 217.555 579.442 214.546 Q579.442 210.888 582.035 208.898 Q584.627 206.907 589.396 206.907 Q591.757 206.907 593.84 207.254 Q595.924 207.601 597.683 208.296 Z" fill="#000000" fill-rule="evenodd" fill-opacity="1" /><path clip-path="url(#clip100)" d="M 0 0 M603.099 223.226 L603.099 207.532 L607.359 207.532 L607.359 223.064 Q607.359 226.745 608.794 228.596 Q610.229 230.425 613.099 230.425 Q616.548 230.425 618.539 228.226 Q620.553 226.027 620.553 222.231 L620.553 207.532 L624.812 207.532 L624.812 233.458 L620.553 233.458 L620.553 229.476 Q619.002 231.837 616.942 232.995 Q614.905 234.129 612.197 234.129 Q607.729 234.129 605.414 231.351 Q603.099 228.573 603.099 223.226 M613.817 206.907 L613.817 206.907 Z" fill="#000000" fill-rule="evenodd" fill-opacity="1" /><path clip-path="url(#clip100)" d="M 0 0 M644.303 211.513 Q643.585 211.097 642.729 210.911 Q641.896 210.703 640.877 210.703 Q637.266 210.703 635.321 213.064 Q633.4 215.402 633.4 219.8 L633.4 233.458 L629.118 233.458 L629.118 207.532 L633.4 207.532 L633.4 211.56 Q634.743 209.198 636.896 208.064 Q639.048 206.907 642.127 206.907 Q642.567 206.907 643.099 206.976 Q643.632 207.023 644.28 207.138 L644.303 211.513 Z" fill="#000000" fill-rule="evenodd" fill-opacity="1" /><path clip-path="url(#clip100)" d="M 0 0 M669.905 219.43 L669.905 221.513 L650.321 221.513 Q650.599 225.911 652.96 228.226 Q655.345 230.518 659.581 230.518 Q662.034 230.518 664.326 229.916 Q666.641 229.314 668.909 228.11 L668.909 232.138 Q666.618 233.11 664.21 233.62 Q661.803 234.129 659.326 234.129 Q653.122 234.129 649.488 230.518 Q645.877 226.907 645.877 220.749 Q645.877 214.384 649.303 210.657 Q652.752 206.907 658.585 206.907 Q663.817 206.907 666.849 210.286 Q669.905 213.643 669.905 219.43 M665.645 218.18 Q665.599 214.685 663.678 212.601 Q661.78 210.518 658.632 210.518 Q655.067 210.518 652.914 212.532 Q650.784 214.546 650.46 218.203 L665.645 218.18 Z" fill="#000000" fill-rule="evenodd" fill-opacity="1" /><path clip-path="url(#clip100)" d="M 0 0 M669.766 198.898 L699.002 198.898 L699.002 202.833 L686.733 202.833 L686.733 233.458 L682.034 233.458 L682.034 202.833 L669.766 202.833 L669.766 198.898 Z" fill="#000000" fill-rule="evenodd" fill-opacity="1" /><path clip-path="url(#clip100)" d="M 0 0 M725.02 217.809 L725.02 233.458 L720.761 233.458 L720.761 217.948 Q720.761 214.268 719.326 212.439 Q717.89 210.61 715.02 210.61 Q711.571 210.61 709.58 212.81 Q707.59 215.009 707.59 218.805 L707.59 233.458 L703.307 233.458 L703.307 197.439 L707.59 197.439 L707.59 211.56 Q709.117 209.222 711.178 208.064 Q713.261 206.907 715.969 206.907 Q720.437 206.907 722.728 209.685 Q725.02 212.439 725.02 217.809 Z" fill="#000000" fill-rule="evenodd" fill-opacity="1" /><path clip-path="url(#clip100)" d="M 0 0 M751.663 219.43 L751.663 221.513 L732.08 221.513 Q732.358 225.911 734.719 228.226 Q737.103 230.518 741.339 230.518 Q743.793 230.518 746.085 229.916 Q748.4 229.314 750.668 228.11 L750.668 232.138 Q748.376 233.11 745.969 233.62 Q743.562 234.129 741.085 234.129 Q734.881 234.129 731.247 230.518 Q727.636 226.907 727.636 220.749 Q727.636 214.384 731.062 210.657 Q734.511 206.907 740.344 206.907 Q745.576 206.907 748.608 210.286 Q751.663 213.643 751.663 219.43 M747.404 218.18 Q747.358 214.685 745.437 212.601 Q743.539 210.518 740.39 210.518 Q736.826 210.518 734.673 212.532 Q732.543 214.546 732.219 218.203 L747.404 218.18 Z" fill="#000000" fill-rule="evenodd" fill-opacity="1" /><path clip-path="url(#clip100)" d="M 0 0 M766.177 210.518 Q762.751 210.518 760.761 213.203 Q758.77 215.865 758.77 220.518 Q758.77 225.171 760.737 227.856 Q762.728 230.518 766.177 230.518 Q769.58 230.518 771.571 227.833 Q773.561 225.147 773.561 220.518 Q773.561 215.911 771.571 213.226 Q769.58 210.518 766.177 210.518 M766.177 206.907 Q771.733 206.907 774.904 210.518 Q778.075 214.129 778.075 220.518 Q778.075 226.884 774.904 230.518 Q771.733 234.129 766.177 234.129 Q760.599 234.129 757.427 230.518 Q754.279 226.884 754.279 220.518 Q754.279 214.129 757.427 210.518 Q760.599 206.907 766.177 206.907 Z" fill="#000000" fill-rule="evenodd" fill-opacity="1" /><path clip-path="url(#clip100)" d="M 0 0 M797.566 211.513 Q796.848 211.097 795.992 210.911 Q795.159 210.703 794.14 210.703 Q790.529 210.703 788.585 213.064 Q786.663 215.402 786.663 219.8 L786.663 233.458 L782.381 233.458 L782.381 207.532 L786.663 207.532 L786.663 211.56 Q788.006 209.198 790.159 208.064 Q792.311 206.907 795.39 206.907 Q795.83 206.907 796.362 206.976 Q796.895 207.023 797.543 207.138 L797.566 211.513 Z" fill="#000000" fill-rule="evenodd" fill-opacity="1" /><path clip-path="url(#clip100)" d="M 0 0 M812.821 235.865 Q811.015 240.495 809.302 241.907 Q807.589 243.319 804.719 243.319 L801.316 243.319 L801.316 239.754 L803.816 239.754 Q805.575 239.754 806.547 238.92 Q807.52 238.087 808.7 234.985 L809.464 233.041 L798.978 207.532 L803.492 207.532 L811.594 227.809 L819.696 207.532 L824.209 207.532 L812.821 235.865 Z" fill="#000000" fill-rule="evenodd" fill-opacity="1" /><path clip-path="url(#clip100)" d="M 0 0 M822.52 227.578 L827.404 227.578 L827.404 233.458 L822.52 233.458 L822.52 227.578 Z" fill="#000000" fill-rule="evenodd" fill-opacity="1" /><path clip-path="url(#clip100)" d="M 0 0 M831.871 207.532 L836.131 207.532 L836.131 233.921 Q836.131 238.874 834.232 241.096 Q832.357 243.319 828.168 243.319 L826.547 243.319 L826.547 239.708 L827.682 239.708 Q830.112 239.708 830.992 238.573 Q831.871 237.462 831.871 233.921 L831.871 207.532 M831.871 197.439 L836.131 197.439 L836.131 202.833 L831.871 202.833 L831.871 197.439 Z" fill="#000000" fill-rule="evenodd" fill-opacity="1" /><path clip-path="url(#clip100)" d="M 0 0 M840.598 197.439 L844.857 197.439 L844.857 233.458 L840.598 233.458 L840.598 197.439 Z" fill="#000000" fill-rule="evenodd" fill-opacity="1" /></svg>
